<svg width="54" height="54" viewBox="0 0 54 54" fill="none" xmlns="http://www.w3.org/2000/svg">
<path d="M11.9158 12.9184C11.3296 16.1757 13.6133 21.879 13.6133 21.879C14.749 19.9088 16.2267 18.5058 17.3807 17.6213C17.3868 17.6213 17.393 17.6152 17.393 17.6152C18.4554 16.7978 19.2492 16.4136 19.2492 16.4136C15.0726 11.7777 12.4836 11.5215 12.4836 11.5215C12.1966 11.8875 12.0135 12.3694 11.9158 12.9184Z" fill="white"/>
<path d="M22.8762 30.5346C23.0839 30.5041 23.267 30.4248 23.3037 30.3516C23.3586 30.2296 23.2121 29.8331 22.9923 29.5526C22.6686 29.1012 22.2473 28.7718 21.1238 28.1008C19.7621 27.2834 18.6447 26.7222 17.8937 26.4904C17.5273 26.3746 17.3014 26.3319 17.0327 26.3319C16.8129 26.3319 16.8129 26.3319 16.764 26.3929C16.6724 26.5575 16.6053 26.7405 16.5747 26.9296C16.5259 27.1553 16.5198 27.7897 16.5503 28.1923L16.5686 28.4241L16.7396 28.601C17.0388 28.8999 17.4418 29.1744 18.0036 29.4489C19.005 29.9368 20.3788 30.3333 21.6733 30.5041C22.0336 30.5468 22.6686 30.5651 22.8762 30.5346Z" fill="white"/>
<path d="M37.0974 28.9365C37.3844 28.723 37.6714 28.4302 37.6897 28.3326C37.7202 28.1679 37.7324 27.2529 37.708 27.0455C37.6592 26.6551 37.537 26.3319 37.4271 26.2892C37.36 26.2587 37.1463 26.2648 36.9692 26.2892C36.4074 26.3685 35.577 26.7039 34.5512 27.2651C33.9283 27.6067 32.5911 28.418 32.2614 28.6559C31.6141 29.1256 31.1989 29.6258 31.0707 30.0832C31.0096 30.3028 31.034 30.3699 31.205 30.4553C31.4676 30.5834 32.3407 30.559 33.2139 30.4004C34.7465 30.1259 36.2548 29.5526 37.0974 28.9365Z" fill="white"/>
<path d="M36.6639 17.6091L36.6761 17.6152C38.1538 18.7864 39.3933 20.2381 40.3153 21.879C40.3153 21.879 42.5196 16.1696 41.9518 12.9123C41.8541 12.3633 41.677 11.8875 41.4022 11.5154C41.4022 11.5154 38.9048 11.7716 34.8687 16.4075C34.8687 16.4075 35.638 16.7917 36.6639 17.6091Z" fill="white"/>
<path d="M19.7316 25.0448C19.7316 25.0448 17.7776 25.1668 18.0219 23.6418C18.2661 22.1169 19.7927 21.9339 20.2201 21.9949C20.6475 22.0559 22.3572 22.6659 22.0519 23.9468C21.7983 25.0111 21.4603 25.0227 21.2131 25.0312C21.1628 25.0329 21.1163 25.0345 21.075 25.0448C20.8307 25.1058 19.7316 25.0448 19.7316 25.0448Z" fill="white"/>
<path d="M34.142 25.0448C34.142 25.0448 32.1881 25.1668 32.4323 23.6418C32.6766 22.1169 34.2031 21.9339 34.6305 21.9949C35.058 22.0559 36.7677 22.6659 36.4624 23.9468C36.2087 25.0111 35.8707 25.0227 35.6236 25.0312C35.5732 25.0329 35.5267 25.0345 35.4854 25.0448C35.2411 25.1058 34.142 25.0448 34.142 25.0448Z" fill="white"/>
<path d="M28.7259 40.5932C28.6099 40.6603 28.5305 40.6908 28.5122 40.6786C28.5018 40.6751 28.4695 40.6498 28.4267 40.6163C28.3944 40.591 28.3561 40.561 28.3168 40.5322L28.1519 40.398L27.981 40.581L27.9347 40.6311C27.6073 40.9852 27.5915 41.0022 27.4864 41.008C27.3154 41.0263 27.2788 40.9958 27.0712 40.6847C26.9612 40.5261 26.8758 40.3919 26.8758 40.3919C26.8758 40.3919 26.7964 40.3797 26.7048 40.3736L26.5338 40.3553L26.3751 40.6847L26.2346 40.642C26.1247 40.6054 26.0148 40.5627 25.911 40.5139L25.7278 40.4224V40.0747L28.9763 40.0869L28.9824 40.2516L28.9828 40.2645C28.9851 40.3376 28.9865 40.381 28.9704 40.4163C28.9468 40.4679 28.8859 40.5024 28.7363 40.5873L28.7259 40.5932Z" fill="white"/>
<path d="M31.779 39.4953C31.6874 39.8429 31.6141 40.1235 31.6141 40.1357L31.6057 40.1365C31.5418 40.1423 31.4831 40.1477 31.4187 40.1418H31.2233L30.9608 40.7823C30.8142 41.13 30.6799 41.4533 30.6616 41.5021L30.6249 41.5875L30.3685 41.1727V39.4831L30.3196 39.4953C30.2158 39.5197 29.477 39.6173 29.1533 39.6477C27.8161 39.7819 26.4728 39.7514 25.1416 39.5624C24.9279 39.5319 24.7447 39.5075 24.7386 39.5136C24.7325 39.5197 24.7386 39.91 24.7508 40.3919L24.7691 41.2581L24.6653 41.4167C24.6379 41.4594 24.6104 41.499 24.5898 41.5287C24.5692 41.5584 24.5554 41.5783 24.5554 41.5814C24.5371 41.5997 24.4761 41.5021 24.3356 41.2215C24.183 40.9287 24.0731 40.6176 23.9937 40.2943L23.9509 40.1174L23.7616 40.1296L23.5723 40.1479L23.5235 39.9222C23.4991 39.8002 23.4685 39.6111 23.4563 39.5075L23.438 39.3123L23.279 39.1717C23.1875 39.0925 23.0961 39.0134 23.0778 39.0012C23.0472 38.9768 23.035 38.9341 23.035 38.8975V38.8243L24.5615 38.8365L24.6104 38.9951L24.873 39.0073C24.972 39.0114 25.216 39.0183 25.492 39.0261L25.8988 39.0378L26.662 39.0561L26.8574 38.7511L27.0589 38.4461H27.3154L27.3032 37.1773L26.9674 37.0309C25.8866 36.5551 25.2515 36.0123 25.0134 35.3535C24.9656 35.2221 24.9646 35.1725 24.9531 34.5976L24.9523 34.5605C24.9462 33.9566 24.9462 33.9017 24.989 33.7675C25.0745 33.4625 25.3126 33.2246 25.6179 33.1453C25.7217 33.1148 25.9965 33.1148 27.4375 33.1148L29.135 33.1209L29.3243 33.2124C29.5502 33.3222 29.654 33.4015 29.7823 33.5723C29.9288 33.7675 29.9716 33.92 29.9716 34.2921C29.9716 34.8228 29.9349 35.2803 29.88 35.4633C29.8006 35.7134 29.6785 35.9513 29.5258 36.1648C29.2205 36.5551 28.6649 36.9455 28.158 37.1224L28.0115 37.1773L28.0237 38.4583L28.2924 38.4827L28.4756 38.7572L28.6526 39.0317H29.4709C29.9227 39.0317 30.3196 39.0378 30.3562 39.0439C30.4173 39.0561 30.4295 39.05 30.4906 38.9463L30.5639 38.8365H31.2661C31.8095 38.8365 31.9683 38.8426 31.9683 38.8609C31.9506 38.855 31.8762 39.1326 31.7888 39.4586L31.779 39.4953Z" fill="white"/>
<path fill-rule="evenodd" clip-rule="evenodd" d="M33.5331 0.801163C28.3501 -0.490197 22.9006 -0.215651 17.8737 1.59008C12.8468 3.3958 8.46835 6.65159 5.29227 10.9456C2.1162 15.2397 0.285133 20.379 0.0306685 25.7138C-0.223796 31.0484 1.10978 36.3387 3.86272 40.9154C6.61565 45.4923 10.6643 49.1499 15.4964 51.4257C20.3287 53.7016 25.7274 54.4935 31.0098 53.7012C36.2921 52.9089 41.2208 50.568 45.1725 46.9747C49.1241 43.3812 51.9212 38.6968 53.2099 33.5139C54.9271 26.5677 53.8204 19.224 50.1321 13.0921C46.4437 6.96036 40.4748 2.54052 33.5331 0.801163ZM43.8874 31.6814C43.9057 31.8705 43.9302 32.2548 43.9424 32.5293C43.9546 32.7119 43.9667 32.8946 43.9729 33.0166L43.979 33.0173C43.9813 33.0429 43.9828 33.0649 43.984 33.0838C43.986 33.1143 43.9874 33.1364 43.9912 33.1514C44.0156 33.2978 43.9851 33.9139 43.9485 34.2494C43.8447 34.9509 43.6249 35.6524 43.2768 36.4392C43.228 36.549 42.8616 37.2017 42.77 37.342C42.7395 37.3847 42.7089 37.4335 42.6906 37.4823C42.6906 37.4945 42.6784 37.5067 42.6662 37.5067C42.654 37.5067 42.6418 37.525 42.6418 37.5372C42.6418 37.5494 42.6296 37.5677 42.6173 37.5677C42.6051 37.5677 42.599 37.5799 42.6051 37.5921C42.6112 37.6043 42.6051 37.6226 42.5868 37.6287C42.5624 37.6348 42.5563 37.647 42.5624 37.6592C42.5685 37.6714 42.5563 37.6836 42.538 37.6897C42.5196 37.6958 42.5074 37.7141 42.5135 37.7202C42.5257 37.7324 42.5074 37.7507 42.4891 37.7629C42.4647 37.7751 42.4525 37.7873 42.4647 37.7873C42.5074 37.7873 41.9457 38.5437 41.5671 38.9829C41.042 39.5807 40.4802 40.1418 39.8818 40.6725C36.0716 43.9786 30.3501 46.2416 26.4728 45.9794C22.7541 45.7232 17.8448 43.5028 14.2239 40.4285C12.0135 38.5498 10.6029 36.6344 10.145 34.896C9.99844 34.3409 9.97401 33.92 10.0229 33.0355C10.0229 33.0173 10.0244 32.9974 10.0259 32.9776C10.0274 32.9578 10.029 32.938 10.029 32.9197C14.1479 32.3183 14.1153 32.3235 10.0168 32.9197C10.1999 29.9673 10.9693 27.1919 12.392 24.3128C12.4165 24.2701 12.4409 24.2213 12.4592 24.1786C12.1905 23.3795 11.47 21.1653 10.8838 18.6461C9.99233 14.8398 9.40614 10.3381 11.1281 9.00228C11.1281 9.00228 14.0407 8.78879 17.9547 12.4914C19.0111 13.4978 19.9697 14.5958 20.8307 15.767C20.8856 15.7487 20.9406 15.7304 21.0017 15.706C22.5282 15.1753 23.8715 14.913 25.624 14.7971C26.2041 14.7605 27.981 14.7605 28.4572 14.7971C30.0387 14.9008 31.608 15.2058 33.1223 15.6999L33.3849 15.7853C34.2153 14.608 35.1496 13.5039 36.1693 12.4853C39.9306 8.80099 42.7395 9.00838 42.7395 9.00838C44.3637 10.3015 43.8325 14.608 42.9959 18.2923C42.3792 21.0067 41.6037 23.3795 41.4144 23.9468C41.4163 23.9505 41.4181 23.9548 41.4201 23.9594C41.4248 23.9701 41.4303 23.9829 41.4389 23.9956C41.4694 24.0688 41.5182 24.1603 41.5732 24.2518C42.9165 26.649 43.6248 28.9121 43.8874 31.6814Z" fill="white"/>
<defs>
<clipPath id="clip0_1_35">
<rect width="54" height="54" fill="white"/>
</clipPath>
</defs>
</svg>
