<svg width="82" height="82" viewBox="0 0 82 82" fill="none" xmlns="http://www.w3.org/2000/svg">
<path d="M71.75 54.6666V27.3333C71.7488 26.135 71.4324 24.958 70.8328 23.9206C70.2331 22.8831 69.3711 22.0216 68.3333 21.4224L44.4167 7.75576C43.3779 7.15601 42.1995 6.84027 41 6.84027C39.8005 6.84027 38.6221 7.15601 37.5833 7.75576L13.6667 21.4224C12.6289 22.0216 11.7669 22.8831 11.1672 23.9206C10.5676 24.958 10.2512 26.135 10.25 27.3333V54.6666C10.2512 55.8649 10.5676 57.0418 11.1672 58.0793C11.7669 59.1167 12.6289 59.9783 13.6667 60.5774L37.5833 74.2441C38.6221 74.8438 39.8005 75.1596 41 75.1596C42.1995 75.1596 43.3779 74.8438 44.4167 74.2441L68.3333 60.5774C69.3711 59.9783 70.2331 59.1167 70.8328 58.0793C71.4324 57.0418 71.7488 55.8649 71.75 54.6666Z" stroke="#D9D9D9" stroke-width="2" stroke-linecap="round" stroke-linejoin="round"/>
<path d="M11.1725 23.78L41 41.0341L70.8275 23.78" stroke="#D9D9D9" stroke-width="2" stroke-linecap="round" stroke-linejoin="round"/>
<path d="M41 75.44V41" stroke="#D9D9D9" stroke-width="2" stroke-linecap="round" stroke-linejoin="round"/>
</svg>
