<svg width="36" height="32" viewBox="0 0 36 32" fill="none" xmlns="http://www.w3.org/2000/svg"><path d="M31.3333 7.66675H4.66668C2.82573 7.66675 1.33334 9.15913 1.33334 11.0001V27.6667C1.33334 29.5077 2.82573 31.0001 4.66668 31.0001H31.3333C33.1743 31.0001 34.6667 29.5077 34.6667 27.6667V11.0001C34.6667 9.15913 33.1743 7.66675 31.3333 7.66675Z" stroke="#D9D9D9" stroke-width="2" stroke-linecap="round" stroke-linejoin="round"></path><path d="M24.6667 31V4.33333C24.6667 3.44928 24.3155 2.60143 23.6904 1.97631C23.0652 1.35119 22.2174 1 21.3333 1H14.6667C13.7826 1 12.9348 1.35119 12.3097 1.97631C11.6845 2.60143 11.3333 3.44928 11.3333 4.33333V31" stroke="#D9D9D9" stroke-width="2" stroke-linecap="round" stroke-linejoin="round"></path></svg>