<svg width="136" height="42" viewBox="0 0 136 42" fill="none" xmlns="http://www.w3.org/2000/svg">
<path d="M43.6236 40.6147L40.8305 30.6961L40.2415 25.2005L42.3699 20.7774H43.5381L46.6162 33.2749L50.1788 20.7774H54.1974L57.76 33.2749L60.8665 20.7774H66.3387L60.781 40.6147H55.3944L52.2023 29.4208L49.0102 40.6147H43.6236Z" fill="white"/>
<path d="M74.6146 41.0398C72.5055 41.0398 70.7575 40.5958 69.3705 39.7079C67.9834 38.8199 67.0144 37.6202 66.4634 36.1088L70.824 33.5867C71.565 35.3437 72.876 36.2222 74.7571 36.2222C76.3151 36.2222 77.0942 35.7782 77.0942 34.8903C77.0942 34.3046 76.6476 33.8323 75.7546 33.4733C75.3746 33.3222 74.5386 33.0671 73.2466 32.7082C71.4225 32.1792 69.9785 31.4423 68.9144 30.4977C67.8504 29.5342 67.3184 28.2023 67.3184 26.5019C67.3184 24.6693 67.9739 23.1863 69.2849 22.0527C70.615 20.9191 72.268 20.3524 74.2441 20.3524C75.9161 20.3524 77.3982 20.7397 78.6902 21.5143C79.9822 22.2889 80.9703 23.413 81.6543 24.8866L77.3792 27.3804C76.7521 25.9068 75.7166 25.17 74.2726 25.17C73.6646 25.17 73.1991 25.2928 72.876 25.5384C72.572 25.784 72.42 26.0957 72.42 26.4736C72.42 26.9081 72.648 27.2765 73.1041 27.5788C73.5791 27.8811 74.4911 28.2306 75.8401 28.6273C76.8091 28.9107 77.5882 29.1752 78.1772 29.4208C78.7662 29.6664 79.4122 30.0254 80.1152 30.4977C80.8183 30.9511 81.3408 31.5463 81.6828 32.2831C82.0248 33.001 82.1958 33.8512 82.1958 34.8336C82.1958 36.7795 81.5023 38.3004 80.1152 39.3962C78.7282 40.4919 76.8947 41.0398 74.6146 41.0398Z" fill="white"/>
<path d="M96.6479 30.356C98.3199 31.3384 99.156 32.8215 99.156 34.8052C99.156 36.5623 98.548 37.9698 97.3319 39.0277C96.1159 40.0857 94.4913 40.6147 92.4583 40.6147H84.0506V20.7774H91.9168C93.9118 20.7774 95.5079 21.2875 96.7049 22.3077C97.9019 23.3091 98.5004 24.6788 98.5004 26.4169C98.5004 28.0795 97.8829 29.3925 96.6479 30.356ZM91.7743 25.3117H89.1522V28.429H91.7743C92.2303 28.429 92.6103 28.2967 92.9143 28.0322C93.2373 27.7488 93.3988 27.3615 93.3988 26.8703C93.3988 26.398 93.2468 26.0202 92.9428 25.7368C92.6388 25.4534 92.2493 25.3117 91.7743 25.3117ZM92.3158 36.0805C92.8288 36.0805 93.2468 35.9294 93.5698 35.6271C93.8928 35.3059 94.0543 34.8997 94.0543 34.4085C94.0543 33.8984 93.8928 33.4922 93.5698 33.1899C93.2468 32.8876 92.8288 32.7365 92.3158 32.7365H89.1522V36.0805H92.3158Z" fill="white"/>
<path d="M102.898 41.0115C102.062 41.0115 101.349 40.7281 100.76 40.1613C100.19 39.5756 99.9052 38.8766 99.9052 38.0642C99.9052 37.2518 100.2 36.5623 100.789 35.9955C101.378 35.4098 102.081 35.117 102.898 35.117C103.715 35.117 104.408 35.4098 104.978 35.9955C105.567 36.5623 105.862 37.2518 105.862 38.0642C105.862 38.8766 105.567 39.5756 104.978 40.1613C104.408 40.7281 103.715 41.0115 102.898 41.0115Z" fill="white"/>
<path d="M112.903 30.5827C112.903 30.8472 113.141 31.0645 113.616 31.2345C114.11 31.4046 114.699 31.5651 115.383 31.7163C116.086 31.8674 116.779 32.0847 117.463 32.3681C118.166 32.6326 118.756 33.0955 119.231 33.7567C119.725 34.4179 119.972 35.2492 119.972 36.2505C119.972 37.8753 119.364 39.075 118.147 39.8496C116.931 40.6242 115.487 41.0115 113.815 41.0115C110.623 41.0115 108.495 39.8874 107.431 37.6391L111.564 35.5704C111.925 36.6095 112.666 37.129 113.787 37.129C114.642 37.129 115.069 36.874 115.069 36.3639C115.069 36.0994 114.832 35.8821 114.357 35.7121C113.882 35.5421 113.302 35.372 112.618 35.202C111.934 35.032 111.25 34.8052 110.566 34.5218C109.882 34.2385 109.303 33.785 108.828 33.1616C108.353 32.5192 108.115 31.7352 108.115 30.8094C108.115 29.298 108.676 28.1267 109.797 27.2954C110.918 26.4641 112.267 26.0485 113.844 26.0485C116.656 26.0485 118.613 27.1443 119.715 29.3358L115.725 31.1212C115.307 30.3088 114.718 29.9026 113.958 29.9026C113.255 29.9026 112.903 30.1293 112.903 30.5827Z" fill="white"/>
<path d="M130.508 26.0485C132.047 26.0485 133.301 26.5775 134.27 27.6355C135.258 28.6746 135.752 30.1765 135.752 32.1414V40.6147H131.021V32.7365C131.021 31.9997 130.821 31.4423 130.422 31.0645C130.042 30.6866 129.529 30.4977 128.883 30.4977C128.142 30.4977 127.563 30.7244 127.145 31.1778C126.746 31.6124 126.546 32.2453 126.546 33.0766V40.6147H121.815V20.7774H126.546V27.8622C127.401 26.6531 128.722 26.0485 130.508 26.0485Z" fill="white"/>
<path d="M9.48966 23.6669C9.55973 23.6814 8.82581 24.9322 8.88115 25.0139C9.10661 24.773 9.72399 24.5438 9.91347 24.2739C10.5903 23.1633 11.6071 20.8722 12.2823 19.7537C12.3933 19.5635 12.4399 19.1241 12.8209 19.4037C13.0958 19.6098 13.6473 19.6881 13.4174 20.2682C13.2807 20.6133 13.1553 20.9633 13.0348 21.3148C12.4367 23.0453 11.837 24.7743 11.2534 26.5096C11.1087 26.9378 10.9993 27.0976 10.6006 26.6789C10.2019 26.2603 9.71313 25.9247 9.29029 25.5269C9.16269 25.4076 9.10973 25.2113 9.02968 25.0431C9.01628 25.214 8.92725 25.4617 9.00733 25.5428C9.62632 26.166 10.2598 26.7652 10.9125 27.3469C10.9704 27.398 11.2903 27.3005 11.3177 27.2158C11.5428 26.5287 11.8579 26.8451 12.1569 27.1264C13.2352 28.1235 14.5005 28.8999 15.8805 29.4113C16.9464 29.8172 17.9545 30.3909 18.9641 30.9357C19.0794 31.0068 19.1774 31.1021 19.2513 31.2151C19.3252 31.3281 19.3732 31.4558 19.3918 31.5893C19.4325 34.4879 19.4529 37.3854 19.4529 40.2818C19.4513 40.8363 19.5976 41.0153 20.1764 40.9961C27.1862 40.7575 34.1939 40.5332 41.1994 40.3234C41.7573 40.3074 41.9406 40.0981 41.9856 39.5804C42.1158 38.0975 42.3232 36.6195 42.4197 35.135C42.4583 34.539 42.1373 33.2466 41.9309 32.6232L41.372 30.0726C41.0521 30.0471 40.8505 24.4834 41.0884 24.2597C42.5483 22.8775 42.9727 21.0959 43.1335 19.2024C43.144 18.9727 43.235 18.7539 43.3908 18.584C44.3602 17.7819 44.5982 16.6825 44.7332 15.5272C44.7654 15.246 44.775 14.9024 44.9358 14.7091C45.4326 14.1275 45.2123 13.5299 45.0017 12.9786C44.7911 12.4273 44.2155 12.5551 43.7332 12.5551C43.5459 12.5493 43.3584 12.5562 43.1721 12.5759C42.7589 12.6366 42.5869 12.4401 42.5612 12.0566C42.5081 11.2672 42.4486 10.4795 42.4004 9.6917C42.3521 8.85121 42.5547 7.87809 42.1914 7.20857C41.791 6.46395 41.7348 5.86634 41.791 5.06739C41.91 3.41676 40.8553 2.35735 39.5691 1.53923C38.381 0.78023 37.0305 0.404724 35.6382 0.244934C31.9886 -0.175313 28.646 0.783426 25.4788 2.52673C25.2945 2.65292 25.1231 2.79677 24.9672 2.9562C25.1853 2.91973 25.3993 2.86151 25.6058 2.78239C28.4467 1.34109 31.4403 0.575699 34.6462 0.783426C36.3809 0.890485 38.0225 1.30434 39.4823 2.26148C40.7171 3.07481 40.5306 4.10545 39.9132 5.16965C39.4582 5.95262 38.9035 5.9702 38.209 5.39016C38.0048 5.21759 37.7893 5.0594 37.5964 4.87724C35.5449 2.9326 33.1027 2.29983 30.347 2.76482C28.6878 3.04392 27.0324 3.34699 25.3807 3.67402C24.4691 3.85618 23.5704 4.11344 22.67 4.34674C22.5993 4.36591 22.551 4.46338 22.4916 4.5257C22.5672 4.54455 22.6452 4.55262 22.7231 4.54967C23.408 4.42983 24.0929 4.29241 24.773 4.17896C25.4464 4.06661 26.0899 4.12036 26.6332 4.58688C26.6439 4.58619 26.6546 4.5855 26.6653 4.58482L26.7827 4.57524L26.6492 4.6008C26.6439 4.59612 26.6385 4.59148 26.6332 4.58688C26.1165 4.62006 25.5999 4.66041 25.0833 4.68389C23.8243 4.74566 22.6459 5.01152 21.7172 5.93741C22.0833 5.84415 22.4536 5.76007 22.8163 5.65222C25.5768 4.8293 27.8052 6.22746 30.0785 7.4099C30.1348 7.44026 30.1573 7.53614 30.1943 7.60005C30.1136 7.65498 30.0253 7.69803 29.9322 7.72789C29.1959 7.85412 28.5367 7.76783 27.8936 7.28846C26.199 6.01494 23.908 5.42692 21.7922 7.23254C21.5089 7.49686 21.1584 7.67927 20.7784 7.76009C20.3985 7.84091 20.0035 7.81707 19.6362 7.69114C19.4965 7.67898 19.3557 7.69032 19.2198 7.72469C19.3307 7.84134 19.4336 8.04427 19.5413 8.04427C20.0156 8.05386 19.7937 8.45493 19.9224 8.64828C19.7294 8.73137 19.5333 8.89914 19.3436 8.89116C19.0574 8.87837 18.7809 8.71698 18.4931 8.67704C18.2959 8.67674 18.0998 8.70528 17.9111 8.76173C17.973 8.92651 18.0568 9.08235 18.1603 9.22512C18.8434 9.94469 19.6976 10.4821 20.6443 10.7879C20.8227 10.855 20.9497 11.0419 21.1105 11.1746C20.9626 11.2704 20.8147 11.3647 20.67 11.4638C20.5719 11.5309 20.4803 11.6076 20.3854 11.6811C20.4738 11.7594 20.5542 11.8936 20.6507 11.9064C21.1716 11.9719 21.0832 12.2915 20.9722 12.6111C20.8583 12.9379 20.7257 13.258 20.5751 13.5698C20.2889 14.1594 20.3275 14.2793 20.932 14.4391C21.2118 14.5126 21.6282 14.3943 21.5542 14.9264C21.6559 14.9738 21.7644 15.005 21.8758 15.0191C22.0575 15.0431 22.2986 14.9791 22.4144 15.0734C22.6041 15.23 22.7134 15.4809 22.8565 15.6934C22.6953 15.7637 22.5413 15.8493 22.3967 15.9491C21.9578 16.3038 21.3886 16.6026 21.1266 17.0676C20.0976 18.8924 20.5156 20.8115 22.1523 22.3263C22.2755 22.4536 22.3905 22.5887 22.4964 22.7305C22.3129 22.7465 22.1284 22.7465 21.9449 22.7305C20.4867 22.4988 19.0301 22.3071 17.5927 22.0003C16.0525 21.6727 14.694 21.0224 13.7582 19.6466C13.0878 18.6591 12.501 18.7262 11.9029 19.7409C11.8466 19.832 11.7936 19.9246 11.7421 20.0189C11.5556 20.3657 11.4157 20.2027 11.3482 19.9598C11.136 19.1992 10.9238 18.437 10.763 17.6652C10.6906 17.3089 10.6874 16.9414 10.234 16.9014C9.75333 16.8599 9.48001 17.1443 9.42052 17.5981C9.38676 17.8633 9.46232 18.1366 9.43017 18.397C9.41203 18.5308 9.28439 18.6489 9.19704 18.7741L9.45927 19.6832C9.89996 19.5618 9.77093 19.2296 9.75494 18.9259C9.71375 18.5043 9.70622 18.0801 9.73243 17.6572C9.7485 17.5054 9.98967 17.3792 10.1263 17.2418C10.2434 17.3819 10.3408 17.5373 10.4157 17.7036C10.6183 18.4098 10.7115 19.1576 11.0009 19.824C11.2646 20.4296 11.2678 20.9073 10.9045 21.4506C10.5867 21.9424 10.3036 22.4555 10.0572 22.9862C9.84818 23.416 9.50091 23.563 9.15203 23.3154C8.07322 22.5452 6.90921 21.8261 6.03298 20.8674C5.4767 20.2554 5.09406 19.2823 5.89793 18.3651C6.12771 18.1021 6.30099 17.7952 6.40715 17.4633C6.51332 17.1314 6.55012 16.7814 6.51531 16.4348C6.49763 16.275 6.61821 16.1152 6.67609 15.9555C6.85615 16.0497 7.12626 16.1025 7.19539 16.2479C7.32009 16.5072 7.36537 16.7973 7.32562 17.082C7.21026 17.6277 7.06208 18.1661 6.88188 18.6943C6.5121 19.8783 6.78059 20.4136 7.93978 20.8594C8.43105 21.0443 8.90774 21.2654 9.36586 21.5209C9.55718 21.628 9.66972 21.8757 9.81764 22.0594C9.75333 21.7622 9.77101 21.3867 9.59255 21.1854C9.29439 20.8924 8.94591 20.6549 8.56359 20.4839C8.23561 20.3161 7.85457 20.2506 7.51212 20.1036C6.99442 19.8799 6.9687 19.6498 7.40922 19.319C7.51611 19.2457 7.63307 19.1882 7.7565 19.1481C7.96872 19.073 8.18416 19.0138 8.3996 18.9483C8.1428 18.8674 7.87989 18.807 7.61341 18.7678C7.43186 18.7801 7.25334 18.8203 7.08415 18.8868C7.08211 18.8945 7.08006 18.9022 7.07802 18.91V18.8892C7.08006 18.8884 7.0821 18.8876 7.08415 18.8868C7.30504 18.0497 7.5254 17.2122 7.74524 16.3741L7.72756 16.3885C7.35885 15.7983 7.00889 15.2316 6.63911 14.6436L6.44483 14.7253L7.18735 15.7749L7.20504 15.7941C6.99047 15.6998 6.7662 15.6291 6.53621 15.5831C6.31173 15.2316 6.18784 15.165 6.22 14.8247C6.22 14.6841 6.3449 14.7502 6.63911 14.6436L5.90437 14.3991C5.87543 14.6692 5.79021 14.9472 5.8288 15.206C5.88668 15.5879 6.05228 15.9539 6.13267 16.3342C6.15839 16.4604 6.06675 16.6122 6.02816 16.7528C5.90842 16.7035 5.79418 16.6419 5.68732 16.5691C5.24199 16.2281 4.82034 15.8576 4.42523 15.4601C3.54901 14.4918 2.46216 14.6723 1.38658 14.8737C1.25719 14.9154 1.1401 14.988 1.04561 15.0853C0.951131 15.1825 0.882156 15.3014 0.844763 15.4313C0.827078 15.6279 1.09557 15.8947 1.30137 16.0545C1.60202 16.2814 2.04736 16.339 2.26602 16.601C3.26604 17.809 4.20979 19.0602 5.17444 20.2985C5.51529 20.738 5.77253 21.2765 6.19537 21.612C7.20825 22.4174 8.1311 23.3937 9.48966 23.6669ZM3.88181 15.4601L3.73229 15.2316L3.52129 15.1331L3.42521 15.1006L3.38984 15.0638L3.41074 15.0814L3.52129 15.1331L3.74676 15.2092L3.90753 15.4425L4.03616 15.6279L4.2114 15.7669C4.22947 15.7923 4.24753 15.8178 4.26558 15.8432C4.37049 15.9261 4.4758 16.0086 4.58115 16.0912L4.58138 16.0914L4.58189 16.0918L4.58231 16.0922C5.02729 16.441 5.47291 16.7904 5.8915 17.1619C5.95083 17.2165 5.91782 17.3725 5.8848 17.5286C5.8695 17.6009 5.8542 17.6733 5.84809 17.7355C5.81083 17.7156 5.77022 17.6976 5.72925 17.6793C5.62528 17.633 5.51899 17.5857 5.45902 17.5054C5.13131 17.0683 4.81588 16.6218 4.50042 16.1753C4.4222 16.0645 4.34398 15.9538 4.26558 15.8432C4.24214 15.8247 4.21872 15.8062 4.19532 15.7877L4.01525 15.6439L3.88181 15.4601ZM35.4452 29.365C35.2885 29.4813 35.1249 29.5975 34.9613 29.7138C34.9114 29.7493 34.8614 29.7848 34.8117 29.8203L35.6028 29.683C35.5255 29.9772 35.4316 30.2669 35.3214 30.5506C34.7645 31.7981 34.1928 33.0411 33.6219 34.2826L33.54 34.4607C33.4899 34.5511 33.4329 34.6377 33.3696 34.7196C33.3202 34.6321 33.2808 34.5393 33.2523 34.4431C32.9521 32.9347 32.659 31.4252 32.3728 29.9147C32.3503 29.7843 32.363 29.6503 32.4098 29.5264C32.6638 28.8792 32.9307 28.2481 33.2024 27.6089C33.2624 27.5029 33.3347 27.4042 33.4179 27.3149C33.4913 27.4233 33.5456 27.5432 33.5786 27.6696C33.5977 27.9357 33.6075 28.2042 33.6168 28.4739C33.6174 28.4918 33.618 28.5098 33.6186 28.5277L33.6187 28.5279L33.6187 28.528L33.6187 28.5282C33.6252 28.7184 33.6317 28.9091 33.6413 29.0998C33.6544 29.1822 33.6776 29.2627 33.7105 29.3394C33.7303 29.2637 33.7417 29.186 33.7442 29.1077C33.7346 28.9168 33.727 28.7255 33.7195 28.5342C33.698 27.9908 33.6765 27.4472 33.6076 26.9106C33.5625 26.5639 33.5706 26.4393 33.9597 26.4393C34.6526 26.4377 35.3472 26.4025 36.0385 26.3498C36.4115 26.3226 36.6269 26.4025 36.5208 26.818C36.4895 26.9395 36.4585 27.0612 36.4276 27.183C36.2823 27.7545 36.1367 28.3271 35.9485 28.8856C35.8997 29.036 35.7397 29.1505 35.5861 29.2605C35.5372 29.2954 35.489 29.3299 35.4452 29.365ZM30.1252 27.3469C29.9685 27.7412 29.8371 28.145 29.7055 28.5494C29.6494 28.7218 29.5933 28.8943 29.5351 29.0662C29.6572 28.8436 29.7798 28.6257 29.9023 28.408C30.0041 28.2272 30.1058 28.0464 30.2072 27.863C30.2399 27.8002 30.2789 27.7438 30.3181 27.687C30.3349 27.6628 30.3516 27.6385 30.3679 27.6137C30.3888 27.6459 30.4142 27.6754 30.439 27.7042C30.4831 27.7555 30.5254 27.8047 30.5368 27.863C30.5598 27.9767 30.5842 28.0898 30.6084 28.2027C30.7888 29.0414 30.9652 29.8617 30.5882 30.7392C30.2978 31.4153 30.12 32.1364 29.9422 32.8579C29.8582 33.1987 29.7742 33.5396 29.6782 33.8759C29.6323 33.9841 29.5729 34.0861 29.5014 34.1795C29.4277 34.106 29.3664 34.0213 29.3197 33.9286C28.6219 31.9195 27.9295 29.9088 27.2425 27.8965C27.2282 27.7945 27.2314 27.6907 27.2521 27.5897C27.3381 27.641 27.4188 27.7004 27.4933 27.7671C27.7012 27.9878 27.9057 28.2118 28.1099 28.4356C28.164 28.4949 28.2181 28.5541 28.2722 28.6133C28.2028 28.4891 28.1365 28.3626 28.0702 28.236C27.8956 27.9029 27.7209 27.5697 27.4917 27.2798C26.8697 26.4909 26.7988 25.5773 26.7274 24.6576C26.7213 24.5788 26.7152 24.4999 26.7087 24.4211C26.6717 23.9801 26.9129 24.0904 27.146 24.2262C27.373 24.3572 27.5985 24.4908 27.8239 24.6244C27.8871 24.6619 27.9504 24.6994 28.0136 24.7368C28.4563 24.9985 28.9003 25.2573 29.3567 25.4933C29.8155 25.7008 30.287 25.8795 30.7683 26.0286C30.703 26.1602 30.6353 26.291 30.5675 26.4218C30.4099 26.7261 30.2522 27.0306 30.1252 27.3469ZM21.7375 21.0416L21.7182 21.024C21.7247 21.0292 21.7311 21.0344 21.7375 21.0396V21.0336C21.088 19.9901 20.8613 18.87 21.2632 17.702C21.4218 17.2597 21.6592 16.8494 21.9642 16.4908C22.3018 16.0833 22.7633 16.16 23.207 16.3789C23.2989 16.2927 23.3632 16.1816 23.3919 16.0593C23.3649 15.9324 23.3025 15.8155 23.2118 15.7222C22.8083 15.1741 23.0205 14.8673 23.6025 14.6947H23.5864C24.8308 14.5845 26.0736 14.455 27.3196 14.3879C27.4676 14.3799 27.6476 14.7027 27.7891 14.8897C27.9836 15.1501 28.1573 15.4234 28.339 15.6886C28.4949 15.8928 28.6383 16.1063 28.7682 16.3278C29.1461 17.0564 29.4564 17.825 29.884 18.5233C30.5046 19.5331 31.5159 19.947 32.6622 20.0221C33.7813 20.0968 34.8902 19.7696 35.787 19.1001C36.6837 18.4305 37.3087 17.4632 37.5482 16.3741C37.5653 16.2694 37.5911 16.1662 37.6253 16.0657C37.6769 15.9612 37.7354 15.8604 37.8006 15.7637C37.8739 15.8344 37.9431 15.9091 38.008 15.9874C38.4396 16.5419 38.866 17.0969 39.2872 17.6524C39.289 17.6535 39.2908 17.6545 39.2926 17.6556L39.291 17.6573C39.2974 17.6658 39.3038 17.6743 39.3103 17.6828H39.2669L39.291 17.6573C39.2897 17.6557 39.2885 17.654 39.2872 17.6524C38.9273 17.4345 38.5689 17.2151 38.2074 17.0005C38.1205 16.9494 38.0241 16.9126 37.9324 16.8695C37.931 16.9888 37.9495 17.1076 37.9871 17.221C38.0954 17.4347 38.2258 17.6366 38.3762 17.8234C38.9252 18.484 38.9244 18.4849 38.3497 19.1341L38.3472 19.1369C38.1969 19.3305 38.0615 19.5351 37.9421 19.7489C38.172 19.6562 38.4485 19.6194 38.6238 19.4596C38.9648 19.167 39.2682 18.8337 39.5273 18.4674C39.6961 18.2261 39.7749 18.2468 40.0177 18.3539C40.6447 18.6239 41.3039 18.8285 41.9309 19.1033C42.0917 19.172 42.2927 19.4197 42.2798 19.5683C42.1335 21.2429 41.5643 22.7162 40.1897 23.7995C38.8601 24.8478 37.3263 25.3175 35.6591 25.4182C33.696 25.5364 31.749 25.4725 29.8711 24.8142C28.6412 24.3844 27.5287 23.7676 26.7119 22.7273C26.4883 22.4111 26.2823 22.0831 26.0945 21.7446C25.8021 21.9656 25.4983 22.1715 25.1845 22.3614C24.5366 22.7146 23.8614 22.6267 23.2745 22.2576C22.7236 21.912 22.2464 21.4511 21.7375 21.0396V21.0416ZM25.3325 10.3261C26.2373 10.1973 27.1387 10.047 27.8556 9.92749L27.856 9.92743L27.8564 9.92737C28.1175 9.88384 28.3542 9.84439 28.5576 9.81155V9.80355C30.5139 10.0577 31.8885 9.62112 33.255 9.1871C33.2889 9.17633 33.3229 9.16556 33.3568 9.15481C33.6816 9.04719 34.0199 8.98246 34.3586 8.91766C34.543 8.88239 34.7274 8.8471 34.9098 8.80487C35.2141 8.73558 35.5178 8.66237 35.8216 8.58914C36.2674 8.48167 36.7132 8.3742 37.1607 8.27916C37.7759 8.14068 38.3933 8.01125 39.0128 7.89087C39.1365 7.8671 39.2659 7.85742 39.3946 7.8478C39.6207 7.83089 39.8447 7.81414 40.0322 7.72149C40.6029 7.43707 40.8569 7.59366 40.9855 8.1737C41.2782 9.49356 41.5852 10.8118 41.8923 12.1285C41.9775 12.4896 41.8907 12.6798 41.4775 12.6973C41.2024 12.7086 40.9276 12.7356 40.6529 12.7627C40.3416 12.7933 40.0304 12.8239 39.7186 12.8316C39.1672 12.8428 38.6816 12.8811 38.3279 13.41C38.0594 13.8127 37.6752 13.7424 37.4051 13.3701C37.061 12.8955 36.6028 12.8444 36.0658 12.8603C34.9795 12.8888 33.8933 12.9102 32.807 12.9317L32.8067 12.9317C31.5136 12.9572 30.2205 12.9828 28.9274 13.0201C28.1838 13.0396 27.4418 13.0929 26.6992 13.1463C26.4077 13.1672 26.1162 13.1882 25.8244 13.2071C25.2971 13.2406 24.9691 13.1144 24.9852 12.4752C24.992 12.2257 24.9228 11.9761 24.8532 11.7252C24.8079 11.5615 24.7623 11.3973 24.7376 11.2321C24.6685 10.7751 24.7488 10.4092 25.3325 10.3261ZM29.9933 3.78747H30.0737V3.77948C32.4162 3.49985 34.3922 4.23329 36.0288 5.8903C36.1157 5.97776 36.1929 6.07494 36.27 6.17212C36.3056 6.21699 36.3412 6.26185 36.3777 6.30576C36.2089 6.41584 36.0269 6.50441 35.8359 6.56941C34.5417 6.82188 33.2667 6.84105 32.1799 5.95102C30.5979 4.65513 28.7345 4.21091 26.7521 4.08947C26.7254 4.09191 26.6985 4.09191 26.6717 4.08947C26.607 4.07395 26.543 4.05688 26.4793 4.03988C26.4512 4.03238 26.4232 4.0249 26.3952 4.01757C26.429 4.01319 26.4622 4.00792 26.495 4.00271C26.5699 3.99081 26.6429 3.97922 26.7167 3.97922L29.9933 3.78747ZM1.80781 15.1565C1.92629 15.1292 2.04828 15.12 2.16955 15.1293C2.91233 15.1309 3.52167 15.5176 3.99275 16.0865C4.37817 16.5519 4.74422 17.0366 5.11027 17.5213C5.19161 17.629 5.27296 17.7367 5.35451 17.8442C5.54262 18.0998 5.32075 19.0042 5.03296 19.0809C4.96061 19.1001 4.82395 18.9755 4.75161 18.8892C4.56313 18.66 4.37949 18.4266 4.19587 18.1931C3.81874 17.7137 3.44173 17.2344 3.02327 16.7928C2.77143 16.5284 2.45452 16.3235 2.13874 16.1194C1.98884 16.0224 1.83919 15.9257 1.69687 15.8228C1.59211 15.7464 1.49662 15.6585 1.40077 15.5702C1.35834 15.5311 1.31584 15.492 1.27243 15.4537C1.44551 15.3454 1.62422 15.2462 1.80781 15.1565ZM24.7585 7.4099L24.7842 7.50578C24.8616 7.49425 24.9405 7.49587 25.0173 7.51057C25.2772 7.60821 25.5333 7.71349 25.79 7.81903C25.7903 7.81917 25.7906 7.81931 25.791 7.81944C25.8658 7.85022 25.9407 7.88101 26.0158 7.91164C25.9371 7.94075 25.8584 7.96963 25.7796 7.99852C25.5556 8.08069 25.3314 8.16292 25.109 8.2504C24.6674 8.42297 24.2274 8.60034 23.789 8.7825C23.7158 8.81345 23.6411 8.85529 23.5666 8.89704C23.4218 8.97815 23.2775 9.05893 23.1459 9.05893C23.0076 9.05893 22.8693 8.96668 22.7311 8.87442C22.67 8.83367 22.6089 8.79293 22.5478 8.76013C22.5822 8.7245 22.6159 8.68828 22.6495 8.65215C22.7274 8.56836 22.8049 8.48499 22.8903 8.41019C22.9696 8.35559 23.0548 8.31003 23.1443 8.27437C23.0425 8.26818 22.9415 8.25375 22.8421 8.23122C22.7579 8.19536 22.6772 8.15204 22.6009 8.10179C22.62 8.08742 22.6384 8.07074 22.6569 8.05409C22.6958 8.01889 22.7346 7.98378 22.7793 7.97077C23.3557 7.80312 23.932 7.64158 24.5094 7.47973L24.5096 7.4797C24.5589 7.46586 24.6083 7.45202 24.6577 7.43817C24.6913 7.42875 24.7249 7.41933 24.7585 7.4099Z" fill="white"/>
<path d="M7.71885 16.4145L9.19277 18.7743L9.46757 19.6685C8.92576 19.2531 7.66888 16.8111 7.66888 16.6132L7.71885 16.4145Z" fill="white"/>
<path d="M24.9418 2.9566L24.4257 3.22026L24.4096 3.23783L24.9546 2.97099L24.9418 2.9566Z" fill="white"/>
<path d="M54.6032 30.025H54.6531L54.6145 30.033L54.6032 30.025Z" fill="white"/>
<path d="M55.3283 30.1847L55.3154 30.1447L55.3476 30.1655L55.3283 30.1847Z" fill="white"/>
<path d="M55.264 29.0727L55.2881 29.0503L55.2704 29.0902L55.264 29.0727Z" fill="white"/>
<path d="M55.3154 28.3503L55.3218 28.3821L55.3378 28.3662L55.3154 28.3503Z" fill="white"/>
<path d="M21.6877 5.95587L21.7102 6.00381L21.7038 5.97025L21.6877 5.95587Z" fill="white"/>
<path d="M24.4257 3.22028L24.4337 3.2778L24.4096 3.23785L24.4257 3.22028Z" fill="white"/>
<path d="M36.9935 21.6759C36.9147 21.6664 36.8327 21.66 36.7588 21.6456L36.0546 21.5066C36.2523 21.2781 36.4067 20.9505 36.6575 20.837C37.4019 20.4999 38.1607 20.6661 38.8842 20.9745C39.18 21.0991 39.172 21.294 38.8633 21.3755C38.2524 21.5273 37.6286 21.6312 37.0096 21.7542L36.9935 21.6759Z" fill="white"/>
<path d="M24.035 18.8972C24.5463 19.2168 24.8196 20.3625 24.4241 20.7188C24.3196 20.8131 23.9884 20.6757 23.7681 20.6245C23.6084 20.5774 23.4516 20.5208 23.2986 20.4552C23.4594 20.3609 23.6202 20.1947 23.7938 20.1851C24.3115 20.1548 24.3485 19.8895 24.2199 19.4916C24.1556 19.2935 24.1073 19.0906 24.0591 18.8892L24.035 18.8972Z" fill="white"/>
<path d="M23.8292 18.0247L23.5318 18.3603C23.3814 18.2423 23.2449 18.1077 23.125 17.9592C23.0961 17.9145 23.2408 17.7547 23.3067 17.6396L23.8292 18.0247Z" fill="white"/>
<path d="M22.6476 19.9422C22.5833 19.7632 22.5157 19.6721 22.535 19.605C22.5824 19.4954 22.6446 19.3927 22.7199 19.2998C22.7858 19.3893 22.908 19.482 22.9032 19.5667C22.8984 19.6513 22.781 19.7568 22.6476 19.9422Z" fill="white"/>
<path d="M22.043 18.664L21.9256 18.8861C21.8838 18.8461 21.8082 18.803 21.8098 18.763C21.8247 18.691 21.8536 18.6226 21.895 18.5617L22.043 18.664Z" fill="white"/>
<path d="M23.5833 14.6932L23.7183 14.6596L23.6685 14.674L23.5993 14.6852L23.5833 14.6932Z" fill="white"/>
<path d="M23.5639 15.3754L23.4883 15.3962L23.5478 15.385L23.5639 15.3754Z" fill="white"/>
<path d="M24.0511 18.8892L23.6523 18.9212L23.6716 18.9388L24.0334 18.8972L24.0511 18.8892Z" fill="white"/>
<path d="M23.6523 18.9212L23.6716 18.9388L23.6523 18.9212Z" fill="white"/>
<path d="M21.7375 21.0336L21.752 20.9968L21.7182 21.016L21.7375 21.0336Z" fill="white"/>
<path d="M9.45264 19.6881L9.48961 19.7424L9.46389 19.7025L9.45264 19.6881Z" fill="white"/>
<path d="M28.3149 28.6955L28.5962 29.2068L28.6171 29.1877C28.5207 29.0279 28.4258 28.8505 28.331 28.6827L28.3149 28.6955Z" fill="white"/>
<path d="M29.5352 29.0662L29.5641 29.3634C29.5544 29.3138 29.5432 29.2659 29.5384 29.2164C29.5335 29.1668 29.5384 29.1205 29.5384 29.0726L29.5352 29.0662Z" fill="white"/>
<path d="M28.9226 29.6542L28.8406 29.3075L28.8181 29.3299L28.9017 29.6494L28.9226 29.6542Z" fill="white"/>
<path d="M29.1509 29.8204L29.1879 29.8699L29.1686 29.814L29.1509 29.8204Z" fill="white"/>
<path d="M29.1686 29.814L28.9226 29.6542H28.9017L29.1509 29.814H29.1686Z" fill="white"/>
<path d="M28.5963 29.2069L28.8181 29.3299L28.8406 29.3075L28.6172 29.1877L28.5963 29.2069Z" fill="white"/>
<path d="M34.3584 30.0249L34.7829 29.8492L34.77 29.8332L34.3439 30.0249H34.3584Z" fill="white"/>
<path d="M34.3439 30.025L34.2314 30.0154H34.3584L34.3439 30.025Z" fill="white"/>
<path d="M10.1665 25.5237C10.1086 25.4086 10.0443 25.2952 9.99288 25.1769C9.94143 25.0587 9.87712 24.8909 9.81924 24.7487C9.93983 24.7151 10.107 24.6177 10.1713 24.6624C10.3032 24.7583 10.4672 24.9341 10.4575 25.0667C10.4479 25.1993 10.2662 25.3591 10.1585 25.5061L10.1665 25.5237Z" fill="white"/>
<path d="M10.1584 25.5061L9.8176 25.4358L9.8594 25.3335L10.1665 25.5236L10.1584 25.5061Z" fill="white"/>
</svg>
