<svg width="82" height="82" viewBox="0 0 82 82" fill="none" xmlns="http://www.w3.org/2000/svg">
<path d="M54.6667 10.25H3.41666V54.6667H54.6667V10.25Z" stroke="#D9D9D9" stroke-width="2" stroke-linecap="round" stroke-linejoin="round"/>
<path d="M54.6667 27.3333H68.3333L78.5833 37.5833V54.6666H54.6667V27.3333Z" stroke="#D9D9D9" stroke-width="2" stroke-linecap="round" stroke-linejoin="round"/>
<path d="M18.7917 71.75C23.5091 71.75 27.3333 67.9258 27.3333 63.2084C27.3333 58.4909 23.5091 54.6667 18.7917 54.6667C14.0742 54.6667 10.25 58.4909 10.25 63.2084C10.25 67.9258 14.0742 71.75 18.7917 71.75Z" stroke="#D9D9D9" stroke-width="2" stroke-linecap="round" stroke-linejoin="round"/>
<path d="M63.2083 71.75C67.9258 71.75 71.75 67.9258 71.75 63.2084C71.75 58.4909 67.9258 54.6667 63.2083 54.6667C58.4909 54.6667 54.6667 58.4909 54.6667 63.2084C54.6667 67.9258 58.4909 71.75 63.2083 71.75Z" stroke="#D9D9D9" stroke-width="2" stroke-linecap="round" stroke-linejoin="round"/>
</svg>
